<?xml version="1.0" encoding="UTF-8" standalone="no"?>
<svg width="6.1000mm" height="100.1000mm" viewBox="0 0 6.1000 100.1000" xmlns="http://www.w3.org/2000/svg" version="1.1">
  <g transform="translate(0,100.100000) scale(1,-1) translate(0.050000,0.050000)">
    <line x1="4.000000" y1="0.000000" x2="4.000000" y2="10.000000" stroke="black" stroke-width="0.1000" fill="none" />
    <line x1="4.000000" y1="20.000000" x2="4.000000" y2="30.000000" stroke="black" stroke-width="0.1000" fill="none" />
    <line x1="4.000000" y1="40.000000" x2="4.000000" y2="50.000000" stroke="black" stroke-width="0.1000" fill="none" />
    <line x1="4.000000" y1="60.000000" x2="4.000000" y2="70.000000" stroke="black" stroke-width="0.1000" fill="none" />
    <line x1="4.000000" y1="80.000000" x2="4.000000" y2="90.000000" stroke="black" stroke-width="0.1000" fill="none" />
    <line x1="6.000000" y1="10.000000" x2="6.000000" y2="20.000000" stroke="black" stroke-width="0.1000" fill="none" />
    <line x1="6.000000" y1="30.000000" x2="6.000000" y2="40.000000" stroke="black" stroke-width="0.1000" fill="none" />
    <line x1="6.000000" y1="50.000000" x2="6.000000" y2="60.000000" stroke="black" stroke-width="0.1000" fill="none" />
    <line x1="6.000000" y1="70.000000" x2="6.000000" y2="80.000000" stroke="black" stroke-width="0.1000" fill="none" />
    <line x1="6.000000" y1="90.000000" x2="6.000000" y2="100.000000" stroke="black" stroke-width="0.1000" fill="none" />
    <line x1="4.000000" y1="10.000000" x2="6.000000" y2="10.000000" stroke="black" stroke-width="0.1000" fill="none" />
    <line x1="4.000000" y1="20.000000" x2="6.000000" y2="20.000000" stroke="black" stroke-width="0.1000" fill="none" />
    <line x1="4.000000" y1="30.000000" x2="6.000000" y2="30.000000" stroke="black" stroke-width="0.1000" fill="none" />
    <line x1="4.000000" y1="40.000000" x2="6.000000" y2="40.000000" stroke="black" stroke-width="0.1000" fill="none" />
    <line x1="4.000000" y1="50.000000" x2="6.000000" y2="50.000000" stroke="black" stroke-width="0.1000" fill="none" />
    <line x1="4.000000" y1="60.000000" x2="6.000000" y2="60.000000" stroke="black" stroke-width="0.1000" fill="none" />
    <line x1="4.000000" y1="70.000000" x2="6.000000" y2="70.000000" stroke="black" stroke-width="0.1000" fill="none" />
    <line x1="4.000000" y1="80.000000" x2="6.000000" y2="80.000000" stroke="black" stroke-width="0.1000" fill="none" />
    <line x1="4.000000" y1="90.000000" x2="6.000000" y2="90.000000" stroke="black" stroke-width="0.1000" fill="none" />
    <line x1="0.000000" y1="0.000000" x2="0.000000" y2="1.000000" stroke="black" stroke-width="0.1000" fill="none" />
  </g>
</svg>