<?xml version="1.0" encoding="UTF-8" standalone="no"?>
<svg width="105.1000mm" height="105.1000mm" viewBox="0 0 105.1000 105.1000" xmlns="http://www.w3.org/2000/svg" version="1.1">
  <g transform="translate(0,105.100000) scale(1,-1) translate(0.050000,0.050000)">
    <line x1="20.000000" y1="20.000000" x2="105.000000" y2="20.000000" stroke="black" stroke-width="0.1000" fill="none" />
    <line x1="20.000000" y1="20.000000" x2="20.000000" y2="105.000000" stroke="black" stroke-width="0.1000" fill="none" />
    <circle cx="40.000000" cy="40.000000" r="15.700000" stroke="black" stroke-width="0.1000" fill="none" />
    <circle cx="40.000000" cy="80.000000" r="15.700000" stroke="black" stroke-width="0.1000" fill="none" />
    <circle cx="80.000000" cy="80.000000" r="15.700000" stroke="black" stroke-width="0.1000" fill="none" />
    <circle cx="80.000000" cy="40.000000" r="15.700000" stroke="black" stroke-width="0.1000" fill="none" />
    <line x1="20.000000" y1="60.000000" x2="105.000000" y2="60.000000" stroke="black" stroke-width="0.1000" fill="none" />
    <line x1="60.000000" y1="20.000000" x2="60.000000" y2="105.000000" stroke="black" stroke-width="0.1000" fill="none" />
    <line x1="20.000000" y1="80.000000" x2="24.400000" y2="80.000000" stroke="black" stroke-width="0.1000" fill="none" />
    <line x1="20.000000" y1="40.000000" x2="24.400000" y2="40.000000" stroke="black" stroke-width="0.1000" fill="none" />
    <line x1="95.600000" y1="80.000000" x2="102.000000" y2="80.000000" stroke="black" stroke-width="0.1000" fill="none" />
    <line x1="95.600000" y1="40.000000" x2="102.000000" y2="40.000000" stroke="black" stroke-width="0.1000" fill="none" />
    <line x1="55.600000" y1="40.000000" x2="64.400000" y2="40.000000" stroke="black" stroke-width="0.1000" fill="none" />
    <line x1="55.600000" y1="80.000000" x2="64.400000" y2="80.000000" stroke="black" stroke-width="0.1000" fill="none" />
    <line x1="40.000000" y1="20.000000" x2="40.000000" y2="24.400000" stroke="black" stroke-width="0.1000" fill="none" />
    <line x1="80.000000" y1="20.000000" x2="80.000000" y2="24.400000" stroke="black" stroke-width="0.1000" fill="none" />
    <line x1="40.000000" y1="55.600000" x2="40.000000" y2="64.400000" stroke="black" stroke-width="0.1000" fill="none" />
    <line x1="80.000000" y1="55.600000" x2="80.000000" y2="64.400000" stroke="black" stroke-width="0.1000" fill="none" />
    <line x1="40.000000" y1="95.600000" x2="40.000000" y2="102.000000" stroke="black" stroke-width="0.1000" fill="none" />
    <line x1="80.000000" y1="95.600000" x2="80.000000" y2="102.000000" stroke="black" stroke-width="0.1000" fill="none" />
    <line x1="0.000000" y1="0.000000" x2="0.000000" y2="1.000000" stroke="black" stroke-width="0.1000" fill="none" />
  </g>
</svg>